<?xml version="1.0" standalone="no"?>
<!DOCTYPE svg PUBLIC "-//W3C//DTD SVG 20010904//EN"
 "http://www.w3.org/TR/2001/REC-SVG-20010904/DTD/svg10.dtd">
<svg version="1.0" xmlns="http://www.w3.org/2000/svg"
 width="512.000000pt" height="512.000000pt" viewBox="0 0 512.000000 512.000000"
 preserveAspectRatio="xMidYMid meet">

<g transform="translate(0.000000,512.000000) scale(0.100000,-0.100000)"
fill="#000000" stroke="none">
<path d="M2411 4660 c-290 -61 -516 -270 -581 -539 -10 -42 -22 -106 -25 -143
l-7 -68 -286 0 c-267 0 -290 -2 -332 -21 -89 -40 -125 -96 -140 -217 -6 -42
-19 -138 -31 -212 -11 -74 -27 -211 -34 -305 -8 -93 -26 -276 -39 -405 -14
-129 -50 -489 -81 -800 -30 -311 -67 -673 -81 -804 -14 -132 -24 -274 -22
-315 7 -145 96 -274 235 -343 l68 -33 1505 0 1505 0 68 33 c86 42 156 113 198
198 49 99 48 150 -10 714 l-50 485 31 45 c159 229 219 338 238 434 36 177
-123 245 -291 125 -17 -12 -32 -20 -33 -18 -4 5 -63 584 -75 744 -6 66 -19
176 -30 245 -11 69 -25 162 -30 207 -15 119 -47 174 -126 216 -38 21 -55 22
-342 25 l-303 3 0 68 c0 37 -9 102 -20 145 -62 243 -250 436 -505 516 -79 25
-295 36 -374 20z m324 -136 c96 -25 207 -88 278 -159 105 -104 176 -268 177
-407 l0 -48 -630 0 -630 0 0 53 c1 127 69 290 164 389 159 167 404 233 641
172z m-935 -892 c0 -170 7 -192 65 -192 58 0 65 22 65 192 l0 148 630 0 630 0
0 -153 c0 -139 2 -156 19 -171 12 -11 31 -16 52 -14 51 5 59 30 59 196 l0 142
288 0 288 0 26 -27 c23 -25 29 -49 58 -248 36 -249 36 -299 -6 -376 -118 -216
-450 -234 -599 -31 -19 26 -40 63 -46 82 -16 48 -37 70 -68 70 -37 0 -45 -8
-76 -78 -35 -79 -113 -153 -186 -177 -152 -51 -316 35 -373 195 -19 53 -43 68
-90 56 -17 -4 -29 -20 -45 -64 -26 -73 -83 -139 -147 -172 -68 -35 -198 -36
-261 -2 -63 33 -112 87 -146 161 -34 74 -41 81 -78 81 -31 0 -52 -22 -68 -70
-28 -87 -134 -182 -236 -212 -63 -19 -172 -13 -236 11 -105 40 -191 143 -205
244 -4 28 6 129 27 276 29 210 35 234 57 256 l25 25 288 0 289 0 0 -148z m231
-735 c165 -77 349 -44 478 87 l54 55 39 -43 c84 -96 193 -141 328 -134 74 3
98 9 155 37 38 19 89 56 120 86 l53 53 64 -62 c189 -185 483 -195 666 -23 28
28 52 45 52 38 0 -7 14 -150 30 -318 l30 -306 -193 -196 c-286 -290 -431 -477
-546 -701 -29 -55 -55 -100 -59 -100 -13 0 -137 163 -197 262 -79 127 -96 198
-105 453 -6 140 -15 243 -25 284 -59 239 -232 371 -485 371 -200 0 -352 -84
-425 -234 -53 -111 -58 -147 -59 -481 -1 -372 5 -349 -153 -583 -57 -85 -115
-177 -129 -204 -43 -85 -104 -249 -130 -351 -22 -86 -54 -267 -54 -305 0 -11
-44 -13 -227 -10 -207 3 -232 5 -274 24 -92 43 -157 134 -166 233 -3 31 11
211 31 401 44 427 176 1742 176 1760 0 6 25 -10 55 -38 188 -172 484 -160 669
27 l57 58 57 -57 c32 -31 82 -68 113 -83z m2386 -514 c-14 -85 -138 -290 -332
-548 -91 -121 -270 -332 -297 -348 -13 -9 -33 3 -102 62 -47 39 -86 76 -86 80
0 14 106 148 210 266 127 143 411 421 490 479 42 31 72 46 92 46 30 0 30 -1
25 -37z m-1698 -72 c75 -53 97 -188 48 -295 l-26 -56 -45 21 -44 22 19 26 c28
39 34 108 12 151 -16 31 -23 35 -57 35 -53 0 -80 -36 -79 -104 l1 -49 -32 10
c-45 15 -49 22 -48 73 3 75 58 157 122 184 35 15 94 7 129 -18z m-432 -13 c38
-34 63 -96 63 -155 0 -48 -2 -52 -30 -62 -29 -10 -30 -9 -30 23 0 100 -70 152
-119 90 -28 -36 -29 -117 -1 -161 l19 -32 -22 -16 c-32 -22 -36 -20 -60 33
-28 63 -29 180 -2 236 37 76 125 97 182 44z m210 -277 c71 -28 246 -124 250
-137 4 -11 -111 -67 -227 -111 -78 -30 -185 -34 -244 -9 -37 16 -155 96 -155
106 0 18 105 102 183 146 51 30 127 32 193 5z m-286 -333 c23 -27 61 -57 94
-73 116 -57 268 -17 401 107 40 38 65 55 68 47 27 -103 58 -175 127 -302 46
-84 93 -176 105 -205 21 -52 21 -54 4 -100 -10 -26 -23 -80 -29 -120 -15 -96
-38 -140 -106 -198 -30 -26 -57 -56 -61 -66 -16 -53 103 -125 224 -135 60 -5
72 -9 72 -24 0 -52 40 -49 -666 -49 l-654 0 0 73 c0 180 61 393 190 667 107
226 130 295 137 399 l6 84 24 -29 c13 -16 42 -50 64 -76z m439 51 c-77 -67
-143 -94 -231 -94 -66 0 -81 3 -118 28 -24 16 -41 30 -39 33 3 2 30 -1 62 -7
76 -16 163 0 276 50 47 21 87 36 90 33 3 -2 -15 -22 -40 -43z m1559 -454 c26
-256 41 -453 37 -477 -14 -86 -74 -166 -154 -205 l-57 -28 -257 -3 -257 -3 -5
23 c-2 13 -11 71 -20 130 l-17 108 32 67 c25 53 34 85 37 144 l4 77 67 48 c87
63 368 344 460 462 41 50 76 92 80 92 4 0 27 -196 50 -435z m-590 160 l72 -59
-38 -33 c-21 -18 -61 -51 -90 -74 l-52 -41 -43 34 c-24 18 -45 34 -48 36 -3 2
19 50 49 107 35 67 59 102 66 97 6 -4 44 -34 84 -67z m-294 -234 c128 -59 139
-200 26 -323 -74 -81 -142 -111 -265 -116 l-99 -4 31 38 c45 56 68 116 86 219
18 102 48 156 106 186 43 24 64 23 115 0z"/>
</g>
</svg>
